<svg width="789" height="488" viewBox="0 0 789 488" fill="none" xmlns="http://www.w3.org/2000/svg">
<path d="M392.706 52C394.639 52 396.206 53.567 396.206 55.5C396.206 55.7792 396.171 56.0502 396.109 56.3105L512.826 68.0771C514.07 65.6565 516.591 64 519.5 64C519.534 64 519.568 64.0015 519.603 64.002C519.637 64.0015 519.671 64 519.706 64C523.848 64 527.206 67.3579 527.206 71.5C527.206 72.4998 527.008 73.453 526.653 74.3252L611.782 120.314C612.67 118.923 614.227 118 616 118C616.034 118 616.068 118.001 616.103 118.002C616.137 118.001 616.171 118 616.206 118C618.967 118 621.206 120.239 621.206 123C621.206 124.252 620.744 125.394 619.984 126.271L690.141 166.361C691.813 163.175 695.152 161 699 161C699.034 161 699.068 161.002 699.103 161.002C699.137 161.002 699.172 161 699.206 161C704.729 161 709.206 165.477 709.206 171C709.206 176.523 704.729 181 699.206 181C699.172 181 699.137 180.997 699.103 180.997C699.068 180.997 699.034 181 699 181C698.621 181 698.246 180.977 697.878 180.936L693.858 196.28C695.808 196.963 697.206 198.818 697.206 201C697.206 203.761 694.967 206 692.206 206C692.171 206 692.137 205.998 692.103 205.997C692.068 205.998 692.034 206 692 206C691.791 206 691.586 205.986 691.384 205.961L666.842 264.599C666.644 267.505 666.343 269.83 665.902 271.417C664.51 276.427 662.742 283.241 658.188 289.085C657.312 290.21 656.333 291.296 655.236 292.327L629.429 353.99C631.685 355.283 633.206 357.713 633.206 360.5C633.206 364.642 629.848 368 625.706 368C622.026 368 618.966 365.349 618.329 361.854L398.556 394.748L395.768 396.159C395.314 397.24 394.246 398 393 398C391.736 398 390.656 397.218 390.214 396.111L282.997 419.183C282.896 427.935 275.55 435 266.5 435C257.387 435 250 427.837 250 419C250 415.272 251.315 411.841 253.52 409.121L99.5166 238.519C97.7315 239.462 95.6815 240 93.5 240C86.5964 240 81 234.627 81 228C81 221.373 86.5964 216 93.5 216C99.3263 216 104.222 219.827 105.607 225.005L192.5 167.215V139.804C192.5 135.562 194.196 132.494 196.763 130.494C199.313 128.508 202.686 127.604 206.022 127.587C209.359 127.57 212.714 128.439 215.25 130.064C215.55 130.257 215.838 130.461 216.114 130.675L220.752 115.604C215.004 113.103 211 107.505 211 101C211 92.1634 218.387 85 227.5 85C234.829 85 241.04 89.6336 243.191 96.0439L389.209 56.6953C389.074 56.3224 389 55.9197 389 55.5C389 53.567 390.567 52 392.5 52C392.534 52 392.568 52.001 392.603 52.002C392.637 52.001 392.671 52 392.706 52ZM280.911 411.206C282.109 413.284 282.844 415.646 282.978 418.163L390.003 395.133C390.001 395.089 390 395.044 390 395C390 394.869 390.008 394.741 390.024 394.614L352.513 373.47L280.911 411.206ZM284.033 387.951L277.938 407.47C278.864 408.333 279.687 409.301 280.385 410.353L351.477 372.886L316.771 353.323L284.033 387.951ZM104.512 233.68C103.532 235.427 102.114 236.913 100.399 238.005L254.179 408.358C255.367 407.066 256.768 405.962 258.328 405.098L235.996 307.794L104.512 233.68ZM269.547 403.273C272.394 403.789 274.984 405.013 277.114 406.751L282.468 389.607L269.547 403.273ZM259.246 404.626C259.792 404.367 260.354 404.135 260.932 403.935L268.547 326.142L237.175 308.458L259.246 404.626ZM261.97 403.611C263.409 403.214 264.929 403 266.5 403C267.12 403 267.732 403.034 268.335 403.099L283.146 387.433L297.235 342.312L269.5 326.679L261.97 403.611ZM458.257 325.543C456.885 327.052 454.906 328 452.706 328C452.671 328 452.637 327.998 452.603 327.997C452.568 327.998 452.534 328 452.5 328C452.063 328 451.635 327.96 451.218 327.889L395.718 393.735C395.778 393.865 395.831 393.999 395.873 394.139L398.245 393.784L510.626 336.908L458.257 325.543ZM353.564 372.916L390.329 393.638C390.538 393.229 390.837 392.876 391.201 392.603L377.616 360.239L353.564 372.916ZM401.391 393.313L618.215 360.86C618.209 360.741 618.206 360.621 618.206 360.5C618.206 360.418 618.209 360.336 618.212 360.255L512.176 337.244L401.391 393.313ZM389.226 354.121L393.785 392.106C394.301 392.246 394.761 392.518 395.127 392.886L450.139 327.618C448.368 327.031 446.892 325.804 445.982 324.209L389.226 354.121ZM378.505 359.771L392.092 392.14C392.307 392.071 392.534 392.028 392.768 392.01L388.279 354.619L378.505 359.771ZM284.712 385.777L315.872 352.817L298.127 342.814L284.712 385.777ZM317.479 352.575L352.528 372.331L377.228 359.313L356.898 310.881L317.479 352.575ZM513.591 336.528L618.311 359.253C618.311 359.248 618.312 359.244 618.312 359.239L542.723 321.785L513.591 336.528ZM357.649 310.086L378.116 358.846L388.151 353.557L381.895 301.438L368.903 298.182L357.649 310.086ZM561.03 316.22C560.113 317.308 558.741 318 557.206 318C557.171 318 557.137 317.998 557.103 317.997C557.068 317.998 557.034 318 557 318C555.557 318 554.257 317.388 553.345 316.41L543.837 321.222L618.552 358.242C618.599 358.093 618.652 357.946 618.708 357.801L561.03 316.22ZM574.174 300.856L562.185 313.453C562.122 314.152 561.916 314.809 561.596 315.395L619.138 356.878C619.853 355.584 620.939 354.525 622.253 353.842L587.317 289.843L574.174 300.856ZM588.099 289.188L623.171 353.439C623.963 353.155 624.816 353 625.706 353C626.705 353 627.657 353.197 628.528 353.552L653.534 293.803C648.997 297.427 642.702 300.147 633.795 300.997L633.774 300.999L633.754 301C627.59 301.079 618.133 300.417 609.781 298.167C605.606 297.042 601.68 295.513 598.577 293.464C595.509 291.437 593.209 288.876 592.307 285.662L588.099 289.188ZM389.098 353.058L445.546 323.309C445.195 322.441 445 321.493 445 320.5C445 319.404 445.237 318.363 445.659 317.425L382.933 301.698L389.098 353.058ZM298.432 341.839L316.58 352.068L356.475 309.872L349.528 293.324L316.19 284.966L298.432 341.839ZM269.606 325.592L297.54 341.337L315.219 284.723L274.604 274.54L269.606 325.592ZM460.159 319.677C460.189 319.947 460.206 320.222 460.206 320.5C460.206 322.043 459.739 323.477 458.939 324.669L512.04 336.191L541.604 321.23L519.492 310.274C517.356 311.978 514.651 313 511.706 313C511.672 313 511.637 312.998 511.603 312.998C511.568 312.998 511.534 313 511.5 313C506.879 313 502.847 310.491 500.684 306.763L460.159 319.677ZM236.872 307.14L268.653 325.055L273.621 274.294L226.63 262.513L236.872 307.14ZM523.183 305.456C522.508 307.016 521.524 308.41 520.309 309.563L542.718 320.667L552.729 315.601C552.425 315.104 552.208 314.55 552.093 313.959L523.183 305.456ZM455.071 313.382C457.49 314.185 459.361 316.186 459.982 318.683L500.208 305.864C499.434 304.239 499 302.42 499 300.5C499 298.173 499.637 295.996 500.744 294.131L470.08 273.209L455.071 313.382ZM380.978 285.411L382.805 300.635L446.146 316.515C446.558 315.86 447.067 315.275 447.654 314.777L447.309 313.164L423.482 264.524C417.742 263.026 412.451 260.435 407.851 256.988L380.978 285.411ZM453.658 262.004C448.893 264.154 443.683 265.505 438.201 265.886L448.262 312.836L448.815 313.968C449.904 313.353 451.161 313 452.5 313C452.534 313 452.568 313.001 452.603 313.002C452.637 313.001 452.671 313 452.706 313C453.181 313 453.646 313.045 454.097 313.13L469.229 272.628L453.658 262.004ZM523.642 296.775C524.008 297.952 524.206 299.203 524.206 300.5C524.206 301.907 523.972 303.259 523.544 304.521L552.002 312.892C552.055 310.398 553.933 308.354 556.354 308.042L554.691 290.992C552.128 290.881 549.924 289.392 548.799 287.247L523.642 296.775ZM561.86 311.173C561.973 311.461 562.06 311.761 562.118 312.072L567.359 306.566L561.86 311.173ZM567.608 274.15L558.734 308.238C559.835 308.591 560.768 309.315 561.39 310.263L573.484 300.13L585.844 287.143L575.321 267.866L567.608 274.15ZM446.442 309.122L437.189 265.945C436.464 265.98 435.734 266 435 266C431.473 266 428.041 265.596 424.748 264.837L446.442 309.122ZM357.226 309.078L367.791 297.902L350.74 293.628L357.226 309.078ZM560.754 279.733C561.664 280.915 562.206 282.394 562.206 284C562.206 287.701 559.333 290.729 555.695 290.98L557.355 308.004C557.49 308.008 557.623 308.016 557.755 308.03L566.298 275.218L560.754 279.733ZM105.256 232.084C105.166 232.322 105.067 232.556 104.962 232.787L235.693 306.476L225.541 262.24L218.982 260.596C216.27 264.084 211.181 265.767 206.161 265.767C200.82 265.767 195.323 263.865 192.589 259.927L192.5 259.798V253.956L105.256 232.084ZM369.692 297.348L381.768 300.375L380.085 286.355L369.692 297.348ZM375.983 252.192C373.761 255.423 370.001 258.577 365.003 261.094C358.465 264.387 349.746 266.63 339.38 266.563L350.256 292.475L368.579 297.068L379.93 285.063L375.983 252.192ZM509.106 287.12L509.354 288.184C510.052 288.063 510.768 288 511.5 288C511.534 288 511.568 288.001 511.603 288.001C511.637 288.001 511.672 288 511.706 288C516.96 288 521.452 291.242 523.302 295.834L548.397 286.329C548.14 285.6 548 284.817 548 284C548 280.354 550.788 277.359 554.349 277.03L552.191 267.025C536.082 268.888 521.786 261.469 516.618 257.502L516.568 257.464L516.53 257.415C514.997 255.472 514.037 253.601 513.462 252.048L509.106 287.12ZM580.299 294.421L586.829 288.948L586.347 288.065L580.299 294.421ZM470.441 272.243L501.29 293.292C501.588 292.87 501.91 292.466 502.257 292.085L498.675 284.332L475.238 259.401L470.441 272.243ZM316.489 284.009L349.044 292.171L338.289 266.548C337.212 266.524 336.117 266.477 335.006 266.402H334.657L333.7 266.401C332.928 266.398 332.641 266.386 332.239 266.329C331.73 266.257 331.052 266.121 328.671 265.842L328.29 265.797L328.273 265.688C326.271 265.446 324.35 265.116 322.516 264.708L316.489 284.009ZM503.01 291.328C503.41 290.957 503.836 290.613 504.282 290.297L500.843 286.639L503.01 291.328ZM481.06 243.82L499.516 283.767L505.134 289.743C506.002 289.228 506.937 288.814 507.925 288.52L508.092 287.177L491.448 216.014L481.06 243.82ZM587.07 287.305L587.61 288.294L592.223 284.429C592.225 283.561 592.31 282.587 592.513 281.586L587.07 287.305ZM576.108 267.225L586.566 286.383L593.118 279.498C593.33 278.951 593.583 278.412 593.889 277.896C594.805 276.351 596.162 275.026 598.093 274.271L608.566 263.267C604.464 260.699 600.402 256.985 596.56 251.805C596.355 251.569 596.15 251.322 595.942 251.065L576.108 267.225ZM492.08 214.322L508.448 284.307L512.775 249.462C512.728 249.134 512.706 248.855 512.706 248.632C512.706 247.071 512.952 245.758 513.372 244.659L517.313 212.919C515.024 207.975 514.608 203.305 515.22 199.217C515.968 194.218 518.252 190.116 520.477 187.457L522.626 170.151L509.485 167.732L492.08 214.322ZM378.905 214.576C378.999 221.38 379.034 228.47 378.928 234.422C378.822 240.353 378.577 245.211 378.096 247.515C377.868 248.605 377.439 249.718 376.826 250.831L380.822 284.119L407.053 256.376C397.035 248.514 390.481 236.523 390.027 223.002L390.024 223.003L390.023 222.885C390.009 222.425 390 221.963 390 221.5C390 221.226 390.005 220.952 390.01 220.679L389.996 218.566L378.848 210.96C378.868 212.151 378.889 213.359 378.905 214.576ZM285.06 167.73L282.575 193.111C283.948 196.189 284.676 199.395 284.676 202.501V259.789L284.596 259.912C283.311 261.902 281.207 263.364 278.74 264.326C277.722 264.723 276.637 265.035 275.512 265.268L274.702 273.532L315.518 283.766L321.538 264.482C317.594 263.531 314.07 262.224 311.021 260.688C303.606 256.954 298.912 251.821 297.928 247.108C297.447 244.804 297.216 239.983 297.134 234.107C297.051 228.211 297.117 221.195 297.241 214.465C297.366 207.734 297.548 201.285 297.7 196.519C297.776 194.135 297.844 192.173 297.894 190.806C297.918 190.122 297.938 189.587 297.952 189.224C297.959 189.042 297.964 188.902 297.968 188.809C297.97 188.762 297.971 188.727 297.972 188.703C297.972 188.691 297.972 188.682 297.973 188.676C297.973 188.673 297.974 188.67 297.974 188.669V188.668C298.099 184.482 299.525 181.405 301.681 179.334L295.321 164.183L285.06 167.73ZM475.629 258.356L497.348 281.46L480.566 245.14L475.629 258.356ZM646.02 261.304C641.367 264.751 633.686 268.27 624.962 268.167C621.81 268.13 618.53 267.62 615.214 266.47L605.049 274.986C608.309 276.748 612.812 278.691 617.679 279.868C623.8 281.348 630.415 281.598 635.851 278.849C638.047 277.698 641.192 275.39 643.461 272.229C645.603 269.243 646.943 265.529 646.02 261.304ZM569.866 257.874C568.67 258.889 567.405 259.824 566.114 260.676C563.919 262.125 561.637 263.347 559.477 264.342L558.604 277.88C559.148 278.182 559.646 278.555 560.088 278.985L566.724 273.581L570.507 259.047L569.866 257.874ZM558.443 264.804C556.496 265.652 554.681 266.308 553.157 266.769L555.363 277.003C556.159 277.02 556.922 277.17 557.631 277.432L558.443 264.804ZM599.962 273.758C600.636 273.643 601.363 273.587 602.147 273.599L602.562 273.611L602.693 273.617L602.806 273.688C603.206 273.938 603.643 274.2 604.112 274.468L614.135 266.07C612.573 265.463 611.005 264.713 609.442 263.798L599.962 273.758ZM239.102 199.293C231.289 199.218 223.002 204.363 219.55 215.081V231.663L226.378 261.418L273.72 273.286L274.487 265.455C273.196 265.661 271.866 265.767 270.535 265.767C264.837 265.767 258.953 263.875 256.212 259.927L256.122 259.798V215.04C254.341 204.653 246.91 199.368 239.102 199.293ZM568.034 272.514L574.834 266.974L571.206 260.327L568.034 272.514ZM468.021 251.726C464.255 255.748 459.748 259.081 454.712 261.512L469.59 271.663L474.474 258.589L468.021 251.726ZM578.407 232.661C579.296 238.021 577.954 243.078 577.343 247.292L577.337 247.33L577.326 247.366C576.404 250.377 574.665 253.048 572.493 255.379L571.573 258.916L575.621 266.332L595.326 250.278C587.645 240.154 578.721 216.488 596.54 190.889L596.552 190.871L596.565 190.855C598.102 189.006 600.317 186.914 603.115 184.965L591.387 182.807L578.407 232.661ZM666.607 223.411C666.74 228.295 666.869 233.057 666.969 237.583C667.143 245.476 667.231 252.652 667.1 258.484C667.075 259.582 667.038 260.635 666.997 261.637L690.395 205.734C689.801 205.533 689.256 205.225 688.786 204.83L666.607 223.411ZM219.55 259.705L225.29 261.145L219.55 236.133V259.705ZM571.097 256.778C570.945 256.921 570.791 257.062 570.637 257.201L570.874 257.635L571.097 256.778ZM477.017 237.456C475.07 242.466 472.234 247.038 468.699 250.985L474.864 257.543L479.977 243.861L477.017 237.456ZM105.876 229.688C105.804 230.178 105.701 230.659 105.569 231.129L192.5 252.924V199.735L105.876 229.688ZM514.653 242.451C515.127 241.885 515.665 241.417 516.24 241.037C518.2 239.741 520.531 239.496 522.085 239.662L522.182 239.673L522.268 239.719C525.734 241.568 530.75 243.007 535.646 244.084C540.302 245.108 544.811 245.794 547.699 246.195L544.21 230.012C531.553 227.173 524.02 222.323 521.666 219.789L521.654 219.776L521.644 219.763C520.214 217.997 519.052 216.246 518.122 214.524L514.653 242.451ZM548.713 246.155C552.284 245.601 554.057 244.127 554.95 242.819C555.432 242.114 555.672 241.437 555.791 240.94C555.851 240.692 555.88 240.49 555.895 240.353C555.902 240.284 555.906 240.231 555.907 240.198C555.908 240.182 555.908 240.171 555.908 240.164V240.109L555.918 240.061C556.367 237.83 555.134 235.801 553.311 234.13C551.515 232.485 549.256 231.295 547.899 230.755C547.005 230.596 546.133 230.425 545.282 230.246L548.713 246.155ZM431.039 232.465L433.715 244.955C434.14 244.983 434.568 245 435 245C442.186 245 448.528 241.045 452.313 235.016L440.504 222.453L431.039 232.465ZM627.337 244.995C638.376 244.805 647.345 235.288 647.964 223.322L627.337 244.995ZM611.942 238.03C615.536 242.079 620.479 244.684 625.978 244.973L647.998 221.836C647.972 217.836 647.015 214.079 645.351 210.812L611.942 238.03ZM423.628 240.303L429.216 244.115C430.332 244.465 431.487 244.714 432.671 244.857L430.205 233.347L423.628 240.303ZM468.983 192.33C475.845 200.141 480 210.341 480 221.5C480 226.627 479.12 231.55 477.507 236.133L480.469 242.543L491.037 214.256L482.553 177.979L468.983 192.33ZM330.648 238.668C333.204 240.011 336.206 240.55 339.159 240.391C341.949 240.24 344.624 239.47 346.789 238.212C348.608 236.939 350.108 235.179 351.057 232.88L352.518 192.994L346.248 188.717L330.648 238.668ZM422.616 203.424C417.393 207.608 414 214.37 414 222C414 227.944 416.059 233.36 419.438 237.442L422.792 239.731L429.95 232.16L424.14 205.045L422.616 203.424ZM296.268 163.855L302.474 178.642C304.875 176.743 307.941 175.948 310.962 176.054C317.17 176.271 323.513 180.354 323.523 186.983L324.958 232.206L325.681 233.928C326.712 235.727 328.12 237.125 329.759 238.155L345.384 188.128L305.255 160.748L296.268 163.855ZM627 199C615.402 199 606 209.298 606 222C606 227.859 608.002 233.206 611.296 237.268L644.869 209.916C641.168 203.365 634.55 199 627 199ZM441.192 221.725L452.847 234.122C454.844 230.602 456 226.449 456 222C456 217.424 454.78 213.161 452.677 209.578L441.192 221.725ZM430.784 231.278L439.817 221.723L425.465 206.454L430.784 231.278ZM564.879 180.426C565.963 180.851 566.983 181.303 567.928 181.774C571.328 183.471 573.832 185.426 574.946 187.171C577.12 190.575 576.943 193.517 575.838 195.737C574.753 197.916 572.797 199.358 571.451 199.869L571.396 199.89L571.336 199.897C569.175 200.171 566.373 199.808 563.668 199.235L562.649 215.047C565.584 216.08 567.94 217.141 569.895 218.471C573.243 220.749 575.386 223.789 577.313 228.68C577.556 229.295 577.761 229.909 577.933 230.52L590.401 182.625L565.038 177.957L564.879 180.426ZM105.835 226.053C105.943 226.687 106 227.337 106 228C106 228.199 105.994 228.396 105.984 228.593L192.5 198.678V168.416L105.835 226.053ZM666.128 204.237C666.251 210.23 666.414 216.263 666.573 222.136L688.088 204.111C687.408 203.257 687 202.177 687 201C687 200.8 687.012 200.604 687.035 200.41L672.345 197.706L666.128 204.237ZM435 199C431.184 199 427.606 200.113 424.522 202.062L425.059 204.562L440.506 220.994L452.133 208.696C448.327 202.828 442.072 199 435 199ZM365.369 145.892C365.017 146.047 364.652 146.174 364.275 146.271L367.844 175.997C370.107 176.312 372.282 177.173 374.062 178.673C376.51 180.736 378.161 183.964 378.296 188.482V188.491C378.296 188.497 378.296 188.507 378.297 188.519C378.298 188.542 378.299 188.579 378.301 188.626C378.304 188.721 378.309 188.862 378.314 189.046C378.326 189.414 378.343 189.956 378.364 190.646C378.407 192.029 378.466 194.016 378.53 196.426C378.628 200.088 378.739 204.732 378.828 209.734L389.989 217.35L389.859 195.887L365.369 145.892ZM547.091 195.471C543.752 195.293 541.228 196.882 539.637 198.905C539.317 199.312 539.037 199.735 538.796 200.162L540.304 207.154C540.313 207.16 540.321 207.167 540.33 207.173C541.638 208.021 543.315 208.832 545.134 209.571C548.769 211.049 552.9 212.218 555.592 212.842L555.605 212.845L555.618 212.849C557.866 213.499 559.87 214.104 561.669 214.709L562.679 199.017C561.868 198.829 561.074 198.627 560.318 198.422C558.53 197.936 556.929 197.426 555.775 197.038C555.199 196.844 554.733 196.68 554.411 196.564C554.25 196.507 554.125 196.461 554.04 196.43C554.007 196.417 553.98 196.407 553.959 196.399L548.465 195.543C548.075 195.523 547.62 195.499 547.091 195.471ZM483.377 177.107L491.669 212.563L508.485 167.549L494.795 165.029L483.377 177.107ZM537.981 202.074C537.681 203.113 537.647 204.036 537.837 204.696C538.041 205.195 538.465 205.718 539.087 206.253L538.104 201.688C538.059 201.818 538.018 201.947 537.981 202.074ZM423.415 202.814L423.733 203.152L423.628 202.661C423.557 202.712 423.486 202.763 423.415 202.814ZM665.994 196.537C666.023 198.618 666.058 200.714 666.099 202.817L671.17 197.49L665.994 196.537ZM673.169 196.841L687.251 199.433C687.395 198.996 687.596 198.585 687.848 198.211L677.631 192.152L673.169 196.841ZM678.337 191.41L688.496 197.434C689.398 196.547 690.635 196 692 196C692.034 196 692.068 196.001 692.103 196.002C692.137 196.001 692.171 196 692.206 196C692.437 196 692.664 196.017 692.887 196.047L696.887 180.774C694.754 180.315 692.874 179.176 691.485 177.595L678.337 191.41ZM665.965 194.02C665.97 194.518 665.975 195.017 665.981 195.518L671.994 196.624L676.748 191.629L672.206 188.936L665.965 194.02ZM367.332 144.615C366.997 144.917 366.636 145.188 366.254 145.424L389.846 193.585L389.693 168.402L367.332 144.615ZM665.982 185.244C666.012 185.586 666.03 185.834 666.039 186.013C666.046 186.152 666.048 186.263 666.044 186.346C666.042 186.386 666.038 186.437 666.027 186.488C666.024 186.506 666.002 186.612 665.921 186.718C665.922 188.7 665.932 190.711 665.951 192.741L671.29 188.393L665.982 185.244ZM346.56 187.718L352.561 191.812L352.745 186.794C352.757 180.166 359.1 176.083 365.308 175.866C365.813 175.849 366.32 175.86 366.824 175.894L363.291 146.455C363.031 146.484 362.767 146.5 362.5 146.5C361.48 146.5 360.508 146.281 359.622 145.888L346.56 187.718ZM451.638 180.142C458.054 182.668 463.745 186.612 468.312 191.583L482.28 176.812L478.837 162.092L439.996 154.943L451.638 180.142ZM261.236 175.969C262.815 176.348 264.33 176.829 265.774 177.402C273.091 180.303 278.606 185.527 281.737 191.396L284.019 168.091L261.236 175.969ZM673.031 188.264L677.455 190.887L690.858 176.803C690.392 176.15 690.002 175.439 689.702 174.682L673.031 188.264ZM219.55 167.448V187.79C234.774 176.436 248.463 173.596 259.335 175.567L284.126 166.996L285.395 154.039C283.949 153.048 283 151.385 283 149.5C283 148.295 283.388 147.181 284.045 146.275L269.146 136.11L219.55 167.448ZM608.498 149.993L658.366 179.566C660.333 179.983 662.119 180.754 663.451 181.617C664.14 182.064 664.721 182.543 665.145 183.021C665.405 183.315 665.623 183.63 665.763 183.952L672.115 187.72L689.362 173.669C689.128 172.819 689 171.924 689 171C689 170.955 689.002 170.91 689.003 170.865L608.531 149.914C608.52 149.941 608.509 149.967 608.498 149.993ZM306.435 160.34L345.695 187.128L358.723 145.41C357.783 144.824 356.974 144.027 356.353 143.079L306.435 160.34ZM521.643 186.182L521.707 186.117L521.735 186.097C525.556 183.273 529.485 181.244 533.396 179.854L531.662 171.814L523.611 170.333L521.643 186.182ZM608.056 150.892C606.654 153.354 604.112 155 601.206 155C601.172 155 601.137 154.998 601.103 154.997C601.068 154.998 601.034 155 601 155C600.206 155 599.44 154.875 598.717 154.646L591.64 181.835L604.308 184.166C613.623 178.17 628.587 174.102 646.17 183.92C648.786 180.259 652.45 179.121 655.878 179.252L608.056 150.892ZM572.177 159.576C571.887 162.619 569.325 165 566.206 165C566.171 165 566.137 164.998 566.103 164.997C566.068 164.998 566.034 165 566 165C565.957 165 565.915 164.997 565.872 164.996L565.103 176.95L590.654 181.653L597.78 154.281C596.513 153.689 595.418 152.759 594.597 151.597L572.177 159.576ZM416.525 180.912C417.263 180.583 418.011 180.273 418.769 179.983L416.525 169.513V180.912ZM534.347 179.527C541.66 177.115 548.873 176.896 555.16 177.845C558.343 178.325 561.291 179.106 563.899 180.055L564.047 177.774L532.727 172.011L534.347 179.527ZM416.525 164.737L419.717 179.632C424.488 177.928 429.635 177 435 177C440.374 177 445.527 177.933 450.305 179.642L438.791 154.722L416.525 150.623V164.737ZM535.651 143.483C533.415 145.537 530.517 146.833 527.33 146.983L532.498 170.95L564.112 176.768L564.877 164.893C562.1 164.367 560 161.93 560 159C560 158.792 560.011 158.586 560.031 158.383L535.651 143.483ZM483.104 175.939L493.622 164.813L479.911 162.29L483.104 175.939ZM523.734 169.338L531.434 170.755L526.438 147.58L523.734 169.338ZM581.863 127.837L595.504 140.325C596.937 138.884 598.871 138 601 138C601.034 138 601.068 138.001 601.103 138.002C601.137 138.001 601.172 138 601.206 138C605.624 138 609.206 141.806 609.206 146.5C609.206 147.358 609.085 148.187 608.862 148.968L689.067 169.85C689.171 168.949 689.393 168.085 689.72 167.273L619.221 126.987C618.382 127.622 617.339 128 616.206 128C616.171 128 616.137 127.998 616.103 127.997C616.068 127.998 616.034 128 616 128C613.812 128 611.953 126.594 611.275 124.636L581.863 127.837ZM509.841 166.78L522.75 169.156L525.507 146.962C522.809 146.758 520.332 145.732 518.306 144.125L509.841 166.78ZM369.277 141.928C368.955 142.652 368.534 143.315 368.032 143.899L389.685 166.933L389.556 145.659L369.277 141.928ZM291.175 154.305C290.383 154.747 289.471 155 288.5 155C287.737 155 287.01 154.843 286.35 154.562L285.167 166.636L294.933 163.259L291.175 154.305ZM495.615 164.162L508.842 166.597L517.497 143.431C517.092 143.055 516.709 142.654 516.351 142.23L495.615 164.162ZM236.931 114.129C234.258 115.938 231.007 117 227.5 117C225.453 117 223.493 116.638 221.684 115.977L216.942 131.384C218.538 132.902 219.55 134.853 219.55 137.172V166.266L268.247 135.496L236.931 114.129ZM470.501 106.192C469.827 107.391 468.718 108.311 467.387 108.737L479.662 161.227L494.442 163.946L515.726 141.437C514.015 139.09 513 136.168 513 133C513 130.597 513.584 128.335 514.612 126.358L470.501 106.192ZM293.126 152.472C292.821 152.945 292.447 153.369 292.017 153.728L295.88 162.932L304.227 160.045L293.126 152.472ZM420.337 112.394L439.481 153.831L478.589 161.028L466.409 108.953C466.179 108.983 465.944 109 465.706 109C465.671 109 465.637 108.998 465.603 108.997C465.568 108.998 465.534 109 465.5 109C462.462 109 460 106.538 460 103.5C460 102.929 460.086 102.377 460.248 101.859L454.939 98.2334L420.337 112.394ZM292.552 145.781C293.451 146.76 294 148.066 294 149.5C294 150.235 293.854 150.936 293.592 151.577L305.405 159.638L355.849 142.195C355.308 141.09 355 139.833 355 138.5C355 138.127 355.025 137.761 355.071 137.401L314.293 126.311L292.552 145.781ZM540.191 132.373C540.2 132.581 540.206 132.79 540.206 133C540.206 136.796 538.748 140.237 536.383 142.759L560.235 157.335C560.957 154.831 563.264 153 566 153C566.034 153 566.068 153.001 566.103 153.002C566.137 153.001 566.171 153 566.206 153C569.356 153 571.935 155.427 572.184 158.513L594.061 150.727C593.387 149.481 593 148.039 593 146.5C593 144.438 593.691 142.547 594.841 141.075L580.538 127.981L540.191 132.373ZM406.521 118.048L408.84 128.871C410.082 129.397 411.244 130.062 412.27 130.857C414.798 132.818 416.525 135.577 416.525 138.884V149.605L438.277 153.609L419.41 112.773L406.521 118.048ZM270.068 135.527L284.709 145.517C285.696 144.577 287.03 144 288.5 144C289.741 144 290.886 144.412 291.807 145.105L313.144 125.998L293.574 120.676L270.068 135.527ZM368.447 133.629C369.42 134.978 370 136.666 370 138.5C370 139.364 369.869 140.195 369.632 140.975L389.55 144.64L389.525 140.567V140.564C389.525 135.758 391.199 132.381 393.77 130.262C396.327 128.154 399.711 127.339 403.054 127.525C404.639 127.614 406.225 127.93 407.725 128.444L405.58 118.433L368.447 133.629ZM385.315 62.709L315.181 125.516L355.258 136.416C356.118 133.008 359.034 130.5 362.5 130.5C362.786 130.5 363.067 130.518 363.345 130.551L392.07 58.9727C391.855 58.9463 391.646 58.9006 391.444 58.8369L385.315 62.709ZM242.85 106.881C241.782 109.498 240.023 111.776 237.792 113.505L269.169 134.914L292.266 120.32L242.85 106.881ZM364.345 130.744C365.664 131.1 366.845 131.829 367.781 132.82L405.367 117.439L392.946 59.4756L364.345 130.744ZM524.827 76.9766C523.572 78.1509 521.914 78.8998 520.082 78.9902L525.239 119.061C525.654 119.021 526.075 119 526.5 119C526.534 119 526.568 119.001 526.603 119.001C526.637 119.001 526.672 119 526.706 119C533.632 119 539.339 124.409 540.115 131.375L579.557 127.082L524.827 76.9766ZM526.215 75.2236C526.008 75.5846 525.773 75.927 525.511 76.2471L580.881 126.938L611.044 123.655C611.016 123.441 611 123.222 611 123C611 122.368 611.118 121.764 611.332 121.207L526.215 75.2236ZM456.048 97.7793L460.643 100.918C461.567 99.1818 463.396 98 465.5 98C465.534 98 465.568 98.0013 465.603 98.002C465.637 98.0013 465.671 98 465.706 98C468.744 98 471.206 100.462 471.206 103.5C471.206 104.123 471.1 104.721 470.909 105.279L515.107 125.484C517.12 122.21 520.41 119.863 524.248 119.194L519.073 78.9863C516.222 78.8264 513.799 77.0749 512.674 74.6055L456.048 97.7793ZM294.721 119.952L314.03 125.203L380.225 65.9258L294.721 119.952ZM243.48 97.001C243.82 98.2792 244 99.6192 244 101C244 102.724 243.716 104.383 243.196 105.938L293.412 119.596L384.708 61.9102L389.447 57.666L243.48 97.001ZM394.37 58.5781C394.198 58.6716 394.017 58.7507 393.828 58.8145L406.309 117.054L418.99 111.864L394.37 58.5781ZM395.488 57.6221C395.396 57.7428 395.296 57.8572 395.189 57.9648L419.917 111.484L453.949 97.5566L395.488 57.6221ZM455.059 97.1035L512.319 73.6699C512.112 72.983 512 72.2546 512 71.5C512 70.6379 512.146 69.81 512.414 69.0391L396.934 57.3984L455.059 97.1035ZM389.799 58.6934L390.411 58.3076C390.378 58.2831 390.346 58.2581 390.313 58.2324L389.799 58.6934Z" fill="#eb9804"/>
</svg>
